<?xml version="1.0" encoding="UTF-8"?>
<svg xmlns="http://www.w3.org/2000/svg" viewBox="0 0 64 64" width="512" height="512"><g id="bag-box-gift-bow-gift_box" data-name="bag-box-gift-bow-gift box"><path d="M61,38H51.87l2.71-1.16a3.007,3.007,0,0,0,.94-4.88l-1.48-1.48a3.009,3.009,0,0,0-2.69-.82,2.532,2.532,0,0,0-.55.18,3.2,3.2,0,0,0-.27-.52A2.99,2.99,0,0,0,48.05,28h-2.1a2.935,2.935,0,0,0-.83.13L44,16.9a1.015,1.015,0,0,0-1-.9H37V14a12,12,0,0,0-24,0v2H7a1.015,1.015,0,0,0-1,.9l-4,40a1.036,1.036,0,0,0,.26.77A1,1,0,0,0,3,58H34v3a1,1,0,0,0,1,1H59a1,1,0,0,0,1-1V46h1a1,1,0,0,0,1-1V39A1,1,0,0,0,61,38ZM45.13,30.44a.968.968,0,0,1,.82-.44h2.1a1,1,0,0,1,.92,1.37L47,36.31l-1.97-4.94A.968.968,0,0,1,45.13,30.44ZM15,14a10,10,0,0,1,20,0v2H15ZM34,56H4.1L7.9,18H13v4H12v2h4V22H15V18H35v4H34v2h4V22H37V18h5.1l1.17,11.71c-.02.05-.05.08-.07.13a2.532,2.532,0,0,0-.55-.18,3.009,3.009,0,0,0-2.69.82l-1.48,1.48a3.007,3.007,0,0,0,.94,4.88L42.13,38H33a1,1,0,0,0-1,1v6a1,1,0,0,0,1,1h1Zm10,4H36V46h8Zm0-16H34V40H44Zm-3.79-9a1,1,0,0,1-.59-.73.977.977,0,0,1,.28-.89l1.48-1.48a.976.976,0,0,1,.7-.3,1.225,1.225,0,0,1,.19.02,1,1,0,0,1,.73.59l2.1,4.89ZM48,60H46V46h2Zm0-16H46V40h2Zm3-11.79a1,1,0,0,1,.73-.59,1.225,1.225,0,0,1,.19-.02.976.976,0,0,1,.7.3l1.48,1.48a.977.977,0,0,1,.28.89,1,1,0,0,1-.59.73L48.9,37.1ZM58,60H50V46h8Zm2-16H50V40H60Z"/></g></svg>
