<svg width="221" height="346" viewBox="0 0 221 346" fill="none" xmlns="http://www.w3.org/2000/svg">
<path d="M198.003 324.001H176.002C176.002 311.85 166.152 302 154.002 302V273.125H66.0009V302C53.8506 302 44.0006 311.85 44.0006 324.001H22.0003C9.84995 324.001 0 333.851 0 346.001H22.0003H44.0006H176.002H198.002H220.002C220.003 333.85 210.153 324.001 198.003 324.001Z" fill="#E99343"/>
<path d="M88.0019 280L105.698 315.366C107.472 318.911 112.532 318.911 114.306 315.366L132.002 280L126.33 273.125H94.3613L88.0019 280Z" fill="url(#paint0_linear)"/>
<path d="M116.877 310.229L114.306 315.364C112.532 318.912 107.472 318.912 105.698 315.364L88.0019 279.999L94.3613 273.124H108.111L101.752 279.999L116.877 310.229Z" fill="url(#paint1_linear)"/>
<path d="M63.6214 258L51.15 271.984C48.3835 275.086 50.5856 280 54.7416 280H165.262C169.418 280 171.62 275.086 168.854 271.984L156.382 258L148.674 251.125H71.3662L63.6214 258Z" fill="#F07281"/>
<path d="M84.8725 258L65.2472 279.999H54.7422C50.5855 279.999 48.3842 275.084 51.1514 271.983L63.6254 258H84.8725Z" fill="#EB5569"/>
<path d="M199.18 254.517L162.144 235.999V148.751L199.791 185.754C203.855 189.749 206.144 195.209 206.144 200.908V250.212C206.145 253.79 202.379 256.117 199.18 254.517V254.517Z" fill="url(#paint2_linear)"/>
<path d="M20.8253 254.517L57.8608 235.999V148.751L20.2141 185.754C16.1496 189.749 13.8609 195.209 13.8609 200.908V250.212C13.8602 253.79 17.625 256.117 20.8253 254.517V254.517Z" fill="url(#paint3_linear)"/>
<path d="M176.005 150.004C176.005 171.925 173.229 193.704 167.775 214.499L162.144 236.001L155.95 240.239L152.398 252.614L68.0957 252.755L63.0219 240.926L57.8594 236.001L52.2287 214.499C49.5021 204.102 47.4478 193.456 46.0666 182.677C44.6922 171.89 43.9985 160.961 43.9985 150.005C43.9985 114.16 51.414 79.2995 65.1614 48.7239C72.1665 33.1566 80.8071 25.5686 90.9492 12.664H129.054C139.196 25.5686 147.837 33.1559 154.842 48.7239C158.213 56.2246 161.209 63.9873 163.801 71.9548C171.784 96.4673 176.005 122.956 176.005 150.004V150.004Z" fill="#EAF6FF"/>
<path d="M154.842 48.7212H65.1628C72.1686 33.1559 80.8106 18.6907 90.9513 5.78619L93.2889 2.80928C100.68 -6.60273 111.762 -8.47275 120.624 -2.8008C122.824 -1.39828 124.88 0.478618 126.716 2.80928L129.053 5.78619C139.194 18.6907 147.836 33.1559 154.842 48.7212Z" fill="url(#paint4_linear)"/>
<path d="M65.1622 48.7232C51.4147 79.2988 43.9992 114.16 43.9992 150.005C43.9992 160.962 44.6936 171.89 46.0673 182.677C47.4485 193.456 49.5027 204.102 52.2294 214.499L57.8601 236.001L63.6256 258H84.8738L79.1083 236.001L73.4776 214.499C70.7509 204.102 68.6966 193.456 67.3154 182.677C65.9418 171.89 65.2474 160.961 65.2474 150.005C65.2474 114.16 72.6629 79.2988 86.4103 48.7232H65.1622Z" fill="#D8ECFE"/>
<path d="M120.624 -2.8008V-2.79393C118.431 -1.39141 116.369 0.478618 114.533 2.80928L112.195 5.78619C102.055 18.6907 93.4126 33.1559 86.4069 48.7212H65.1628C72.1686 33.1559 80.8106 18.6907 90.9513 5.78619L93.2888 2.80928C100.68 -6.60273 111.762 -8.47275 120.624 -2.8008V-2.8008Z" fill="url(#paint5_linear)"/>
<path d="M162.144 236.001L156.386 258H63.6249L57.8594 236.001H162.144Z" fill="url(#paint6_linear)"/>
<path d="M84.8727 258H63.6248L57.8594 236.001H79.1073L84.8727 258Z" fill="url(#paint7_linear)"/>
<path d="M110.002 191.997C134.303 191.997 154.002 172.298 154.002 147.997C154.002 123.697 134.303 103.998 110.002 103.998C85.7017 103.998 66.0023 123.697 66.0023 147.997C66.0023 172.298 85.7017 191.997 110.002 191.997Z" fill="url(#paint8_linear)"/>
<path d="M117.085 191.424C114.783 191.799 112.411 191.998 110.002 191.998C85.7372 191.998 66.005 172.259 66.005 148.001C66.005 123.736 85.7372 103.997 110.002 103.997C112.411 103.997 114.783 104.195 117.085 104.57C96.1771 107.963 80.1705 126.144 80.1705 148.001C80.1698 169.85 96.1764 188.031 117.085 191.424Z" fill="url(#paint9_linear)"/>
<path d="M110.002 169.97C122.137 169.97 131.974 160.132 131.974 147.997C131.974 135.862 122.137 126.025 110.002 126.025C97.8668 126.025 88.0294 135.862 88.0294 147.997C88.0294 160.132 97.8668 169.97 110.002 169.97Z" fill="#CE25BD"/>
<path d="M117.085 168.801C114.86 169.559 112.481 169.97 110.002 169.97C97.884 169.97 88.0322 160.111 88.0322 148C88.0322 135.882 97.884 126.023 110.002 126.023C112.481 126.023 114.86 126.434 117.085 127.191C108.43 130.145 102.197 138.361 102.197 148C102.197 157.632 108.43 165.848 117.085 168.801V168.801Z" fill="url(#paint10_linear)"/>
<defs>
<linearGradient id="paint0_linear" x1="110.002" y1="273.125" x2="110.002" y2="318.025" gradientUnits="userSpaceOnUse">
<stop stop-color="#FF7C03"/>
<stop offset="1" stop-color="#CE25BD"/>
</linearGradient>
<linearGradient id="paint1_linear" x1="102.439" y1="273.124" x2="102.439" y2="318.025" gradientUnits="userSpaceOnUse">
<stop stop-color="#CE25BD"/>
<stop offset="1" stop-color="#FF7C03"/>
</linearGradient>
<linearGradient id="paint2_linear" x1="184.144" y1="148.751" x2="184.144" y2="255.032" gradientUnits="userSpaceOnUse">
<stop stop-color="#FF7C03"/>
<stop offset="1" stop-color="#CE25BD"/>
</linearGradient>
<linearGradient id="paint3_linear" x1="35.8608" y1="148.751" x2="35.8608" y2="255.032" gradientUnits="userSpaceOnUse">
<stop stop-color="#CE25BD"/>
<stop offset="1" stop-color="#FF7C03"/>
</linearGradient>
<linearGradient id="paint4_linear" x1="110.002" y1="-6" x2="110.002" y2="48.7212" gradientUnits="userSpaceOnUse">
<stop stop-color="#FF7C03"/>
<stop offset="1" stop-color="#CE25BD"/>
</linearGradient>
<linearGradient id="paint5_linear" x1="92.8935" y1="-6" x2="92.8935" y2="48.7212" gradientUnits="userSpaceOnUse">
<stop stop-color="#FF7C03"/>
<stop offset="1" stop-color="#CE25BD"/>
</linearGradient>
<linearGradient id="paint6_linear" x1="110.002" y1="236.001" x2="110.002" y2="258" gradientUnits="userSpaceOnUse">
<stop stop-color="#FF7C03"/>
<stop offset="1" stop-color="#CE25BD"/>
</linearGradient>
<linearGradient id="paint7_linear" x1="71.3661" y1="236.001" x2="71.3661" y2="258" gradientUnits="userSpaceOnUse">
<stop stop-color="#FF7C03"/>
<stop offset="1" stop-color="#CE25BD"/>
</linearGradient>
<linearGradient id="paint8_linear" x1="110.002" y1="103.998" x2="110.002" y2="191.997" gradientUnits="userSpaceOnUse">
<stop stop-color="#E26047"/>
<stop offset="1" stop-color="#E99343" stop-opacity="0"/>
</linearGradient>
<linearGradient id="paint9_linear" x1="91.545" y1="103.997" x2="91.545" y2="191.998" gradientUnits="userSpaceOnUse">
<stop stop-color="#CE25BD"/>
<stop offset="1" stop-color="#FF7C03"/>
</linearGradient>
<linearGradient id="paint10_linear" x1="102.558" y1="126.023" x2="102.558" y2="169.97" gradientUnits="userSpaceOnUse">
<stop stop-color="#FF7C03"/>
<stop offset="0.454583" stop-color="#F58620" stop-opacity="0.545417"/>
<stop offset="1" stop-color="#E99343" stop-opacity="0"/>
</linearGradient>
</defs>
</svg>
